<svg xmlns="http://www.w3.org/2000/svg" id="proximarkdown-logo" height="64" width="64" fill="#fff" stroke="#000" stroke-width="4" paint-order="stroke fill markers">
    <path id="bracket-L"            d="M62 57.363q-.028.109-.137.137H47.788q-.109-.028-.137-.137v-3.608q.028-.109.137-.137h9.047V10.381h-9.019q-.109-.027-.137-.137V6.637q.028-.109.137-.137h14.048q.109.027.137.137z"/>
    <path id="asterisk" fill="#f00" d="M45.247 44.736l-5.528 3.194-7.801-12.377L24.27 47.93l-5.59-3.194 9.767-11.609-13.606-4.515 2.826-5.528 12.347 6.542-1.075-14.251h6.02l-.921 14.251 12.254-6.542 2.856 5.528-13.667 4.515z"/>
    <path id="bracket-R"            d="M2 57.363V6.637q.027-.109.137-.137h14.048q.109.027.137.137v3.608q-.027.109-.137.137H7.166v43.238h9.047q.109.028.137.137v3.608q-.027.109-.137.137H2.137q-.109-.028-.137-.137z"/>
</svg>